<svg t="1625491771989" class="icon" viewBox="0 0 1024 1024" version="1.1" xmlns="http://www.w3.org/2000/svg" p-id="4882" width="32" height="32"><path d="M512 1024a512 512 0 1 1 512-512 512 512 0 0 1-512 512z m0-938.666667a426.666667 426.666667 0 1 0 426.666667 426.666667A426.666667 426.666667 0 0 0 512 85.333333z m-85.333333 622.506667a42.666667 42.666667 0 0 1-30.72-14.506667l-128-145.493333a42.666667 42.666667 0 1 1 64-56.32l94.72 110.933333 266.24-273.493333a42.666667 42.666667 0 0 1 61.44 59.733333l-298.666667 306.346667a42.666667 42.666667 0 0 1-29.013333 12.8z" p-id="4883" fill="#424242"></path></svg>