<svg viewBox="0 0 16 16" height="16" width="16" xmlns="http://www.w3.org/2000/svg"><g transform="matrix(1.1428571428571428,0,0,1.1428571428571428,0,0)"><path d="M7,13.5V8.25A1.25,1.25,0,0,1,8.25,7h0A1.25,1.25,0,0,1,9.5,8.25V11h2a2,2,0,0,1,2,2v.5" fill="none" stroke="#424242" stroke-linecap="round" stroke-linejoin="round"></path><path d="M0.500 0.500 L8.500 0.500 L8.500 3.500 L0.500 3.500 Z" fill="none" stroke="#424242" stroke-linecap="round" stroke-linejoin="round"></path><path d="M10.500 0.500 L13.500 0.500 L13.500 3.500 L10.500 3.500 Z" fill="none" stroke="#424242" stroke-linecap="round" stroke-linejoin="round"></path><path d="M0.500 5.500 L3.000 5.500 L3.000 8.500 L0.500 8.500 Z" fill="none" stroke="#424242" stroke-linecap="round" stroke-linejoin="round"></path><path d="M5,8.5V6a.5.5,0,0,1,.5-.5H13a.5.5,0,0,1,.5.5V8a.5.5,0,0,1-.5.5H11.5" fill="none" stroke="#424242" stroke-linecap="round" stroke-linejoin="round"></path></g></svg>