<svg viewBox="0 0 16 16" height="16" width="16" xmlns="http://www.w3.org/2000/svg"><g transform="matrix(1.1428571428571428,0,0,1.1428571428571428,0,0)"><path d="M6 10.25L5 12.75" fill="none" stroke="#c5c5c5" stroke-linecap="round" stroke-linejoin="round"></path><path d="M8 10.25L9 12.75" fill="none" stroke="#c5c5c5" stroke-linecap="round" stroke-linejoin="round"></path><path d="M4 12.75L10 12.75" fill="none" stroke="#c5c5c5" stroke-linecap="round" stroke-linejoin="round"></path><path d="M13,1.25a.5.5,0,0,1,.5.5v8a.5.5,0,0,1-.5.5H1a.5.5,0,0,1-.5-.5v-8a.5.5,0,0,1,.5-.5" fill="none" stroke="#c5c5c5" stroke-linecap="round" stroke-linejoin="round"></path><path d="M7,3.2c1.167-2.6,3.5-1.3,3.5.65,0,2.6-3.5,3.9-3.5,3.9s-3.5-1.3-3.5-3.9C3.5,1.906,5.833.607,7,3.2Z" fill="none" stroke="#c5c5c5" stroke-linecap="round" stroke-linejoin="round"></path></g></svg>