<svg viewBox="0 0 16 16" height="16" width="16" xmlns="http://www.w3.org/2000/svg"><g transform="matrix(1.1428571428571428,0,0,1.1428571428571428,0,0)"><path d="M13.234,6.334a.966.966,0,0,1,0,1.332C12.18,8.8,9.786,11,7,11S1.82,8.8.766,7.666a.966.966,0,0,1,0-1.332C1.82,5.2,4.214,3,7,3S12.18,5.2,13.234,6.334Z" fill="none" stroke="#c5c5c5" stroke-linecap="round" stroke-linejoin="round"></path><path d="M5.000 7.000 A2.000 2.000 0 1 0 9.000 7.000 A2.000 2.000 0 1 0 5.000 7.000 Z" fill="none" stroke="#c5c5c5" stroke-linecap="round" stroke-linejoin="round"></path></g></svg>