<svg t="1625294140856" class="icon" viewBox="0 0 1024 1024" version="1.1" xmlns="http://www.w3.org/2000/svg" p-id="1922" width="16" height="16"><path d="M512 928a416 416 0 1 0 0-832 416 416 0 0 0 0 832z m0 96A512 512 0 1 1 512 0a512 512 0 0 1 0 1024z m-69.76-506.496L327.36 402.432a48 48 0 1 1 67.968-67.84L510.016 449.6l114.752-115.008a48 48 0 0 1 67.968 67.84l-114.88 115.072 114.88 115.2a48 48 0 1 1-67.968 67.776L510.016 585.472 395.328 700.48a48 48 0 0 1-67.968-67.84l114.88-115.136z" fill="#C5C5C5" p-id="1923"></path></svg>